<svg xmlns="http://www.w3.org/2000/svg" width="1080" height="1350" viewBox="0 0 1080 1350">
    <defs><linearGradient id="wash" x1="0" y1="0" x2="1" y2="1"><stop stop-color="#f3efe5"/><stop offset="1" stop-color="#dfe4d7"/></linearGradient><filter id="shadow"><feDropShadow dx="0" dy="18" stdDeviation="28" flood-color="#344137" flood-opacity=".12"/></filter></defs>
    <rect width="1080" height="1350" fill="url(#wash)"/>

    <circle cx="950.4" cy="162" r="194.4" fill="#c39a4b" opacity=".12"/>
    <circle cx="86.4" cy="1107" r="216" fill="#9a765d" opacity=".10"/>
    <text x="78" y="80" fill="#344137" font-family="DM Sans,Arial,sans-serif" font-size="25" font-weight="700" letter-spacing="3">RUN / LIGHTER</text>
    <rect x="78" y="116" width="68" height="7" rx="4" fill="#b96f4b"/><rect x="154" y="116" width="68" height="7" rx="4" fill="#c39a4b"/><rect x="230" y="116" width="68" height="7" rx="4" fill="#587664"/>
    <text x="78" y="205" fill="#29312c" font-family="DM Sans, Arial, sans-serif" font-size="82" font-weight="600" text-anchor="start"><tspan x="78" dy="0">Finished work</tspan><tspan x="78" dy="80.36">should flow to</tspan><tspan x="78" dy="80.36">invoicing</tspan></text>
    <g filter="url(#shadow)"><rect x="78" y="500" width="924" height="560" rx="22" fill="#fbf8f1" stroke="#344137" stroke-opacity=".17"/><circle cx="136" cy="560" r="22" fill="#587664"/><path d="M 125 560 l 9 9 17 -22" fill="none" stroke="#fbf8f1" stroke-width="6" stroke-linecap="round"/><rect x="178" y="550" width="443.52" height="20" rx="10" fill="#344137" opacity=".2"/><circle cx="136" cy="706.6666666666666" r="22" fill="#587664"/><path d="M 125 706.6666666666666 l 9 9 17 -22" fill="none" stroke="#fbf8f1" stroke-width="6" stroke-linecap="round"/><rect x="178" y="696.6666666666666" width="609.8399999999999" height="20" rx="10" fill="#344137" opacity=".2"/><circle cx="136" cy="853.3333333333333" r="22" fill="#587664"/><path d="M 125 853.3333333333333 l 9 9 17 -22" fill="none" stroke="#fbf8f1" stroke-width="6" stroke-linecap="round"/><rect x="178" y="843.3333333333333" width="443.52" height="20" rx="10" fill="#344137" opacity=".2"/><circle cx="136" cy="1000" r="22" fill="#dfe4d7"/><path d="M 125 1000 l 9 9 17 -22" fill="none" stroke="#718069" stroke-width="6" stroke-linecap="round"/><rect x="178" y="990" width="609.8399999999999" height="20" rx="10" fill="#344137" opacity=".2"/></g>
    <rect x="78" y="1246" width="924" height="1" fill="#344137" opacity=".2"/>
    <text x="78" y="1280" fill="#344137" font-family="Manrope,Arial,sans-serif" font-size="22" font-weight="600">This post has been automated so we can run lighter.</text>
  </svg>