<svg xmlns="http://www.w3.org/2000/svg" width="1080" height="1350" viewBox="0 0 1080 1350">
    <defs><linearGradient id="wash" x1="0" y1="0" x2="1" y2="1"><stop stop-color="#f3efe5"/><stop offset="1" stop-color="#dfe4d7"/></linearGradient><filter id="shadow"><feDropShadow dx="0" dy="18" stdDeviation="28" flood-color="#344137" flood-opacity=".12"/></filter></defs>
    <rect width="1080" height="1350" fill="url(#wash)"/>

    <circle cx="950.4" cy="162" r="194.4" fill="#c39a4b" opacity=".12"/>
    <circle cx="86.4" cy="1107" r="216" fill="#9a765d" opacity=".10"/>
    <text x="78" y="80" fill="#344137" font-family="DM Sans,Arial,sans-serif" font-size="25" font-weight="700" letter-spacing="3">RUN / LIGHTER</text>
    <rect x="78" y="116" width="68" height="7" rx="4" fill="#b96f4b"/><rect x="154" y="116" width="68" height="7" rx="4" fill="#c39a4b"/><rect x="230" y="116" width="68" height="7" rx="4" fill="#587664"/>
    <text x="78" y="205" fill="#29312c" font-family="DM Sans, Arial, sans-serif" font-size="82" font-weight="600" text-anchor="start"><tspan x="78" dy="0">Handover gaps</tspan><tspan x="78" dy="80.36">create hidden work</tspan></text>
    <g filter="url(#shadow)"><rect x="78" y="500" width="924" height="560" rx="22" fill="#dfe4d7" stroke="#344137" stroke-opacity=".17"/><circle cx="225.84" cy="780" r="64" fill="#587664"/><path d="M 188.88 780 l 28 28 58 -72" fill="none" stroke="#fbf8f1" stroke-width="14" stroke-linecap="round" stroke-linejoin="round"/><rect x="355.2" y="656.8" width="462" height="20" rx="10" fill="#344137" opacity="0.28"/><rect x="355.2" y="768.8" width="397.32" height="20" rx="10" fill="#344137" opacity="0.23000000000000004"/><rect x="355.2" y="880.8" width="332.64" height="20" rx="10" fill="#344137" opacity="0.18000000000000002"/></g>
    <rect x="78" y="1246" width="924" height="1" fill="#344137" opacity=".2"/>
    <text x="78" y="1280" fill="#344137" font-family="Manrope,Arial,sans-serif" font-size="22" font-weight="600">This post has been automated so we can run lighter.</text>
  </svg>