<svg xmlns="http://www.w3.org/2000/svg" width="1600" height="900" viewBox="0 0 1600 900">
    <defs><linearGradient id="wash" x1="0" y1="0" x2="1" y2="1"><stop stop-color="#f3efe5"/><stop offset="1" stop-color="#dfe4d7"/></linearGradient><filter id="shadow"><feDropShadow dx="0" dy="18" stdDeviation="28" flood-color="#344137" flood-opacity=".12"/></filter></defs>
    <rect width="1600" height="900" fill="url(#wash)"/>

    <circle cx="1408" cy="108" r="162" fill="#c39a4b" opacity=".12"/>
    <circle cx="128" cy="738" r="180" fill="#9a765d" opacity=".10"/>
    <text x="74" y="56" fill="#344137" font-family="DM Sans,Arial,sans-serif" font-size="20" font-weight="700" letter-spacing="3">RUN / LIGHTER</text>
    <rect x="74" y="80" width="68" height="7" rx="4" fill="#b96f4b"/><rect x="150" y="80" width="68" height="7" rx="4" fill="#c39a4b"/><rect x="226" y="80" width="68" height="7" rx="4" fill="#587664"/>
    <text x="74" y="175" fill="#29312c" font-family="DM Sans, Arial, sans-serif" font-size="64" font-weight="600" text-anchor="start"><tspan x="74" dy="0">Automate the work around</tspan><tspan x="74" dy="62.72">marketing</tspan></text>
    <g filter="url(#shadow)"><rect x="800" y="205" width="323.84" height="270" rx="22" fill="#fbf8f1" stroke="#344137" stroke-opacity=".17"/><rect x="1212.16" y="205" width="323.84" height="270" rx="22" fill="#dfe4d7" stroke="#344137" stroke-opacity=".17"/><rect x="844.16" y="250.9" width="147.20000000000002" height="18" rx="9" fill="#9a765d" opacity="0.25"/><rect x="844.16" y="299.5" width="235.52" height="18" rx="9" fill="#9a765d" opacity="0.33"/><rect x="844.16" y="348.1" width="147.20000000000002" height="18" rx="9" fill="#9a765d" opacity="0.41000000000000003"/><rect x="844.16" y="396.70000000000005" width="235.52" height="18" rx="9" fill="#9a765d" opacity="0.49"/><line x1="1145.92" y1="340" x2="1190.08" y2="340" stroke="#c39a4b" stroke-width="8" stroke-linecap="round" /><circle cx="1374.08" cy="318.4" r="48" fill="#587664"/><path d="M 1352 318.4 l 22 22 42 -52" fill="none" stroke="#fbf8f1" stroke-width="12" stroke-linecap="round" stroke-linejoin="round"/></g>
    <rect x="74" y="824" width="1452" height="1" fill="#344137" opacity=".2"/>
    <text x="74" y="858" fill="#344137" font-family="Manrope,Arial,sans-serif" font-size="17" font-weight="600">This post has been automated so we can run lighter.</text>
  </svg>