<svg xmlns="http://www.w3.org/2000/svg" width="1080" height="1350" viewBox="0 0 1080 1350">
    <defs><linearGradient id="wash" x1="0" y1="0" x2="1" y2="1"><stop stop-color="#f3efe5"/><stop offset="1" stop-color="#dfe4d7"/></linearGradient><filter id="shadow"><feDropShadow dx="0" dy="18" stdDeviation="28" flood-color="#344137" flood-opacity=".12"/></filter></defs>
    <rect width="1080" height="1350" fill="url(#wash)"/>

    <circle cx="950.4" cy="162" r="194.4" fill="#c39a4b" opacity=".12"/>
    <circle cx="86.4" cy="1107" r="216" fill="#9a765d" opacity=".10"/>
    <text x="78" y="80" fill="#344137" font-family="DM Sans,Arial,sans-serif" font-size="25" font-weight="700" letter-spacing="3">RUN / LIGHTER</text>
    <rect x="78" y="116" width="68" height="7" rx="4" fill="#b96f4b"/><rect x="154" y="116" width="68" height="7" rx="4" fill="#c39a4b"/><rect x="230" y="116" width="68" height="7" rx="4" fill="#587664"/>
    <text x="78" y="205" fill="#29312c" font-family="DM Sans, Arial, sans-serif" font-size="82" font-weight="600" text-anchor="start"><tspan x="78" dy="0">A good lead should</tspan><tspan x="78" dy="80.36">never wait for an</tspan><tspan x="78" dy="80.36">acknowledgement</tspan></text>
    <g filter="url(#shadow)"><rect x="78" y="623.2" width="271.04" height="313.6" rx="22" fill="#fbf8f1" stroke="#344137" stroke-opacity=".17"/><circle cx="213.52" cy="735.2" r="21" fill="#b96f4b"/><rect x="132.208" y="813.6" width="162.624" height="10" rx="5" fill="#344137" opacity=".25"/><line x1="349.04" y1="780" x2="404.48" y2="780" stroke="#9a765d" stroke-width="8" stroke-linecap="round" /><rect x="404.48" y="623.2" width="271.04" height="313.6" rx="22" fill="#dfe4d7" stroke="#344137" stroke-opacity=".17"/><circle cx="540" cy="735.2" r="21" fill="#c39a4b"/><rect x="458.68800000000005" y="813.6" width="162.624" height="10" rx="5" fill="#344137" opacity=".25"/><line x1="675.52" y1="780" x2="730.96" y2="780" stroke="#9a765d" stroke-width="8" stroke-linecap="round" /><rect x="730.96" y="623.2" width="271.04" height="313.6" rx="22" fill="#fbf8f1" stroke="#344137" stroke-opacity=".17"/><circle cx="866.48" cy="735.2" r="21" fill="#587664"/><rect x="785.168" y="813.6" width="162.624" height="10" rx="5" fill="#344137" opacity=".25"/></g>
    <rect x="78" y="1246" width="924" height="1" fill="#344137" opacity=".2"/>
    <text x="78" y="1280" fill="#344137" font-family="Manrope,Arial,sans-serif" font-size="22" font-weight="600">This post has been automated so we can run lighter.</text>
  </svg>