<svg xmlns="http://www.w3.org/2000/svg" width="1200" height="630" viewBox="0 0 1200 630">
    <defs><linearGradient id="wash" x1="0" y1="0" x2="1" y2="1"><stop stop-color="#f3efe5"/><stop offset="1" stop-color="#dfe4d7"/></linearGradient><filter id="shadow"><feDropShadow dx="0" dy="18" stdDeviation="28" flood-color="#344137" flood-opacity=".12"/></filter></defs>
    <rect width="1200" height="630" fill="url(#wash)"/>

    <circle cx="1056" cy="75.6" r="113.39999999999999" fill="#c39a4b" opacity=".12"/>
    <circle cx="96" cy="516.6" r="126" fill="#9a765d" opacity=".10"/>
    <text x="74" y="56" fill="#344137" font-family="DM Sans,Arial,sans-serif" font-size="20" font-weight="700" letter-spacing="3">RUN / LIGHTER</text>
    <rect x="74" y="80" width="68" height="7" rx="4" fill="#b96f4b"/><rect x="150" y="80" width="68" height="7" rx="4" fill="#c39a4b"/><rect x="226" y="80" width="68" height="7" rx="4" fill="#587664"/>
    <text x="74" y="175" fill="#29312c" font-family="DM Sans, Arial, sans-serif" font-size="64" font-weight="600" text-anchor="start"><tspan x="74" dy="0">Better questions make</tspan><tspan x="74" dy="62.72">better calls</tspan></text>
    <g filter="url(#shadow)"><rect x="600" y="205" width="552" height="270" rx="22" fill="#fbf8f1" stroke="#344137" stroke-opacity=".17"/><circle cx="787.6800000000001" cy="340" r="81" fill="none" stroke="#dfe4d7" stroke-width="34"/><path d="M 787.6800000000001 259 A 81 81 0 1 1 666.24 394" fill="none" stroke="#587664" stroke-width="34" stroke-linecap="round"/><line x1="787.6800000000001" y1="340" x2="787.6800000000001" y2="286" stroke="#344137" stroke-width="12" stroke-linecap="round"/><line x1="787.6800000000001" y1="340" x2="864.96" y2="361.6" stroke="#344137" stroke-width="12" stroke-linecap="round"/><rect x="942.24" y="280.6" width="99.36" height="18" rx="9" fill="#9a765d"/><rect x="942.24" y="326.5" width="126.96" height="18" rx="9" fill="#c39a4b"/><rect x="942.24" y="372.4" width="154.56" height="18" rx="9" fill="#587664"/></g>
    <rect x="74" y="554" width="1052" height="1" fill="#344137" opacity=".2"/>
    <text x="74" y="588" fill="#344137" font-family="Manrope,Arial,sans-serif" font-size="17" font-weight="600">This post has been automated so we can run lighter.</text>
  </svg>