<svg xmlns="http://www.w3.org/2000/svg" width="1080" height="1350" viewBox="0 0 1080 1350"><defs><filter id="grain"><feTurbulence type="fractalNoise" baseFrequency=".65" numOctaves="3" seed="34"/><feColorMatrix values="0 0 0 0 1 0 0 0 0 1 0 0 0 0 1 0 0 0 .045 0"/></filter></defs><rect width="1080" height="1350" fill="#F6EAD8"/><rect width="1080" height="1350" filter="url(#grain)" opacity=".55"/><text x="60" y="66" fill="#1A2C25" font-family="DM Sans,Arial,sans-serif" font-size="24" font-weight="700" letter-spacing="3" text-anchor="start">RUN / LIGHTER</text>
      <text x="60" y="175" fill="#B6553D" font-family="DM Sans, Arial, sans-serif" font-size="92" font-weight="700" text-anchor="start"><tspan x="60" dy="0">What Could AI</tspan><tspan x="60" dy="82.8">Handle Here?</tspan></text>
      <path d="M 0 438 L 1080 300 V 688 L 0 826 Z" fill="#8EA28C"/>
      <path d="M 72 965 H 1008" stroke="#1A2C25" stroke-width="72" stroke-linecap="round"/>
      <g transform="rotate(-9 120 815)"><rect x="50" y="715" width="140" height="170" rx="22" fill="#D5B84C" stroke="#1A2C25" stroke-width="7"/><circle cx="120" cy="757" r="16" fill="#1A2C25"/><path d="M 82 809 H 158 M 82 845 H 140" stroke="#1A2C25" stroke-width="11" stroke-linecap="round" opacity=".7"/></g><g transform="rotate(6 325 815)"><rect x="255" y="715" width="140" height="170" rx="22" fill="#F6EAD8" stroke="#1A2C25" stroke-width="7"/><circle cx="325" cy="757" r="16" fill="#1A2C25"/><path d="M 287 809 H 363 M 287 845 H 345" stroke="#1A2C25" stroke-width="11" stroke-linecap="round" opacity=".7"/></g><g transform="rotate(-5 530 815)"><rect x="460" y="715" width="140" height="170" rx="22" fill="#B6553D" stroke="#1A2C25" stroke-width="7"/><circle cx="530" cy="757" r="16" fill="#1A2C25"/><path d="M 492 809 H 568 M 492 845 H 550" stroke="#1A2C25" stroke-width="11" stroke-linecap="round" opacity=".7"/></g><g transform="rotate(8 735 815)"><rect x="665" y="715" width="140" height="170" rx="22" fill="#1A2C25" stroke="#1A2C25" stroke-width="7"/><circle cx="735" cy="757" r="16" fill="#F6EAD8"/><path d="M 697 809 H 773 M 697 845 H 755" stroke="#F6EAD8" stroke-width="11" stroke-linecap="round" opacity=".7"/></g>
      <circle cx="120" cy="965" r="27" fill="#F6EAD8"/><circle cx="325" cy="965" r="27" fill="#F6EAD8"/><circle cx="530" cy="965" r="27" fill="#F6EAD8"/><circle cx="735" cy="965" r="27" fill="#F6EAD8"/>
      <path d="M 785 520 L 920 655 L 785 790" fill="none" stroke="#D5B84C" stroke-width="34" stroke-linecap="round" stroke-linejoin="round"/>
      <rect y="1258" width="1080" height="92" fill="#1A2C25"/><text x="64" y="1316" fill="#F6EAD8" font-family="Manrope,Arial,sans-serif" font-size="21" font-weight="600">This post has been automated so we can run lighter.</text></svg>