<svg xmlns="http://www.w3.org/2000/svg" width="1200" height="630" viewBox="0 0 1200 630">
    <defs><linearGradient id="wash" x1="0" y1="0" x2="1" y2="1"><stop stop-color="#f3efe5"/><stop offset="1" stop-color="#dfe4d7"/></linearGradient><filter id="shadow"><feDropShadow dx="0" dy="18" stdDeviation="28" flood-color="#344137" flood-opacity=".12"/></filter></defs>
    <rect width="1200" height="630" fill="url(#wash)"/>

    <circle cx="1056" cy="75.6" r="113.39999999999999" fill="#c39a4b" opacity=".12"/>
    <circle cx="96" cy="516.6" r="126" fill="#9a765d" opacity=".10"/>
    <text x="74" y="56" fill="#344137" font-family="DM Sans,Arial,sans-serif" font-size="20" font-weight="700" letter-spacing="3">RUN / LIGHTER</text>
    <rect x="74" y="80" width="68" height="7" rx="4" fill="#b96f4b"/><rect x="150" y="80" width="68" height="7" rx="4" fill="#c39a4b"/><rect x="226" y="80" width="68" height="7" rx="4" fill="#587664"/>
    <text x="74" y="175" fill="#29312c" font-family="DM Sans, Arial, sans-serif" font-size="64" font-weight="600" text-anchor="start"><tspan x="74" dy="0">Stop rebuilding Friday’s</tspan><tspan x="74" dy="62.72">report</tspan></text>
    <g filter="url(#shadow)"><rect x="787.6800000000001" y="205" width="176.64000000000001" height="64.8" rx="22" fill="#dfe4d7" stroke="#344137" stroke-opacity=".17"/><line x1="876" y1="269.8" x2="876" y2="326.5" stroke="#587664" stroke-width="8" stroke-linecap="round" /><line x1="738" y1="326.5" x2="1014" y2="326.5" stroke="#587664" stroke-width="8" stroke-linecap="round" /><line x1="738" y1="326.5" x2="738" y2="372.4" stroke="#587664" stroke-width="8" stroke-linecap="round" /><line x1="1014" y1="326.5" x2="1014" y2="372.4" stroke="#587664" stroke-width="8" stroke-linecap="round" /><rect x="600" y="372.4" width="231.84" height="81" rx="22" fill="#fbf8f1" stroke="#344137" stroke-opacity=".17"/><rect x="920.16" y="372.4" width="231.84" height="81" rx="22" fill="#fbf8f1" stroke="#344137" stroke-opacity=".17"/><circle cx="738" cy="412.9" r="28" fill="#587664"/><circle cx="1014" cy="412.9" r="28" fill="#b96f4b"/></g>
    <rect x="74" y="554" width="1052" height="1" fill="#344137" opacity=".2"/>
    <text x="74" y="588" fill="#344137" font-family="Manrope,Arial,sans-serif" font-size="17" font-weight="600">This post has been automated so we can run lighter.</text>
  </svg>