<svg xmlns="http://www.w3.org/2000/svg" width="1080" height="1350" viewBox="0 0 1080 1350">
    <defs><linearGradient id="wash" x1="0" y1="0" x2="1" y2="1"><stop stop-color="#f3efe5"/><stop offset="1" stop-color="#dfe4d7"/></linearGradient><filter id="shadow"><feDropShadow dx="0" dy="18" stdDeviation="28" flood-color="#344137" flood-opacity=".12"/></filter></defs>
    <rect width="1080" height="1350" fill="url(#wash)"/>

    <circle cx="950.4" cy="162" r="194.4" fill="#c39a4b" opacity=".12"/>
    <circle cx="86.4" cy="1107" r="216" fill="#9a765d" opacity=".10"/>
    <text x="78" y="80" fill="#344137" font-family="DM Sans,Arial,sans-serif" font-size="25" font-weight="700" letter-spacing="3">RUN / LIGHTER</text>
    <rect x="78" y="116" width="68" height="7" rx="4" fill="#b96f4b"/><rect x="154" y="116" width="68" height="7" rx="4" fill="#c39a4b"/><rect x="230" y="116" width="68" height="7" rx="4" fill="#587664"/>
    <text x="78" y="205" fill="#29312c" font-family="DM Sans, Arial, sans-serif" font-size="82" font-weight="600" text-anchor="start"><tspan x="78" dy="0">Your inbox is not</tspan><tspan x="78" dy="80.36">a workflow</tspan></text>
    <g filter="url(#shadow)"><circle cx="188.88" cy="780" r="35" fill="#9a765d"/><circle cx="355.2" cy="780" r="35" fill="#c39a4b"/><circle cx="521.52" cy="780" r="35" fill="#708b9b"/><line x1="188.88" y1="780" x2="752.52" y2="780" stroke="#718069" stroke-width="8" stroke-linecap="round" /><path d="M 752.52 640 L 983.52 780 L 752.52 920 Z" fill="#dfe4d7" stroke="#344137" stroke-opacity=".2"/><circle cx="706.32" cy="780" r="72" fill="#fbf8f1" stroke="#b96f4b" stroke-width="15"/><rect x="660.12" y="752" width="92.4" height="56" rx="10" fill="#b96f4b"/></g>
    <rect x="78" y="1246" width="924" height="1" fill="#344137" opacity=".2"/>
    <text x="78" y="1280" fill="#344137" font-family="Manrope,Arial,sans-serif" font-size="22" font-weight="600">This post has been automated so we can run lighter.</text>
  </svg>