<svg xmlns="http://www.w3.org/2000/svg" width="1200" height="630" viewBox="0 0 1200 630">
    <defs><linearGradient id="wash" x1="0" y1="0" x2="1" y2="1"><stop stop-color="#f3efe5"/><stop offset="1" stop-color="#dfe4d7"/></linearGradient><filter id="shadow"><feDropShadow dx="0" dy="18" stdDeviation="28" flood-color="#344137" flood-opacity=".12"/></filter></defs>
    <rect width="1200" height="630" fill="url(#wash)"/>

    <circle cx="1056" cy="75.6" r="113.39999999999999" fill="#c39a4b" opacity=".12"/>
    <circle cx="96" cy="516.6" r="126" fill="#9a765d" opacity=".10"/>
    <text x="74" y="56" fill="#344137" font-family="DM Sans,Arial,sans-serif" font-size="20" font-weight="700" letter-spacing="3">RUN / LIGHTER</text>
    <rect x="74" y="80" width="68" height="7" rx="4" fill="#b96f4b"/><rect x="150" y="80" width="68" height="7" rx="4" fill="#c39a4b"/><rect x="226" y="80" width="68" height="7" rx="4" fill="#587664"/>
    <text x="74" y="175" fill="#29312c" font-family="DM Sans, Arial, sans-serif" font-size="64" font-weight="600" text-anchor="start"><tspan x="74" dy="0">See workload before it</tspan><tspan x="74" dy="62.72">becomes overload</tspan></text>
    <g filter="url(#shadow)"><circle cx="666.24" cy="340" r="35" fill="#9a765d"/><circle cx="765.6" cy="340" r="35" fill="#c39a4b"/><circle cx="864.96" cy="340" r="35" fill="#708b9b"/><line x1="666.24" y1="340" x2="1002.96" y2="340" stroke="#718069" stroke-width="8" stroke-linecap="round" /><path d="M 1002.96 272.5 L 1140.96 340 L 1002.96 407.5 Z" fill="#dfe4d7" stroke="#344137" stroke-opacity=".2"/><circle cx="975.36" cy="340" r="72" fill="#fbf8f1" stroke="#b96f4b" stroke-width="15"/><rect x="947.76" y="326.5" width="55.2" height="27" rx="10" fill="#b96f4b"/></g>
    <rect x="74" y="554" width="1052" height="1" fill="#344137" opacity=".2"/>
    <text x="74" y="588" fill="#344137" font-family="Manrope,Arial,sans-serif" font-size="17" font-weight="600">This post has been automated so we can run lighter.</text>
  </svg>